/* XPM */
static char *b8ae0b4093c8471fd60544f619b4bc7f1LMlcOAj1Br3dvpS[] = {
/* columns rows colors chars-per-pixel */
"64 64 9 1 ",
"  c None",
". c #FE0000",
"X c red",
"o c #DC0022",
"O c #BB0043",
"+ c yellow",
"@ c #7C0083",
"# c blue",
"$ c magenta",
/* pixels */
"                                                                ",
"                                                                ",
"          #               XXXXXXXXX                             ",
"          ## $$$                     XXX                        ",
"          #$    $$  X                   X        X X            ",
"          $#     X$              +      X  X                    ",
"        X $#       $ X   XX     +        $                      ",
"         $#@       $  X       ++                                ",
"         $@@       $XXX      +XX         #                      ",
"       X $@#        $    $  +           @#                      ",
"       X $#         $  X $ +   $        @#          +++         ",
"        #$@         $    $+    $$       @ $     ++++            ",
"        #$@  XX    X $  ++     $$       @$$   ++                ",
"   X    @$o          $ + $     $ $     ##$$ ++                  ",
"       @O$ X    X     +  $     $ $   X ##X++                    ",
"    XXX##$           +$   $   $   $    #++ $                    ",
"    X ###O$         + $   $   $    $X+++                        ",
"     X###@ $       +  $       $   +++$$$    $                   ",
"  X   @#@#  $$    +  $      $$ +++     #    $                   ",
"      @@#     $$++$$ $      +++       #      $$$$ $             ",
"      @@       +         +++    X X   # X  X                    ",
"     #@#     ++      ++++     X       @                         ",
"     #@     +   +++++  ###@#XX     XX @                         ",
"    @#    +++ ++      ###@@O@     X  ##                         ",
"   #@+++++++++  X    ### oOOO@      $@@                         ",
"  +++#           XX  #@XXX@@##      $#                          ",
" ###@#@            X@OO@X  ###   XX $@                          ",
"  ###@#@#       ++ XoO OXX ##@#XX   $O                          ",
"  ####@@###$$     ++OoX X  @ooX     $#                          ",
"    ###O###$$# @##X +@XXXXXo@#      $      ++++++++++++         ",
"        @@#$#$@#OO  #++@@@@@@      XO$     +           ++++     ",
"           $ X$X   # @#++++++++++++ #$      +        $$$$       ",
"           $X  $       ++++    X   + $      + $     $    $$     ",
"           $X   $    ++    +++     + $       +$     $      $    ",
"          X$  X  $   +        ++ ++# $     $$ +$    $       $   ",
"           $     X$ X X           ## $   $ $ $+ $$  $        $  ",
"           $    X $X+   X        X@# $   $ $  $+  $ $        $  ",
"     ###@@@$###   X$ +      XXXX  #   $        $+  $$         $ ",
"     #  X  $  @O@O#O$+        X   @@  $ $   X   +   $         $ ",
"     #  X  $    X   @$++          ###O$@$##@O@###+###$        $ ",
"     # X   $    XXX   $               $    X X ##@+## $         ",
"     # X   $ XXXX   # $  ++++         $ $XX       +    $       $",
"     OXX    $X X    #  $      +     @ $ $      X   +    $      $",
"     O      $ XX    #   $   ++      # $       XX   $+           ",
"     @  X   $ X     #    $  +       # $   $X       $ +          ",
"     @      $X      #     $         @  $   $    X  $ +          ",
"     @      $X      #     $  +    XX@  $  XX$$   X $  +         ",
"     @     X$X X    @      $  +     #  $      $$   $   +        ",
"     @      $       #       $  ++   #  $        $$     +        ",
"     @      X$      #        $   +  #  $          X     +       ",
"     @       $X     #   @@@###$   +++++$     X          +       ",
"     O       $ XX       #     #$    #  ++++++++++++++++         ",
"     @       $   X  #  #      # $   #  $                        ",
"             $       # #      #  $   @ $                        ",
"     #        $      @ @     XO   $  @X$                        ",
"     #   XX   $    X @ @@  XX@    X$ @ $                        ",
"     #    XX  $         #@@##       $$ $                        ",
"     #####@#@O@$###### XX            # $           # #          ",
"              XXXXX  @               @@@##@@@######             ",
"                   XXOXXXXXXXXXXXXX                             ",
"                     #                                          ",
"                                                                ",
"                                                                ",
"                                                                "
};
