/* XPM */
static char *_80ea4dcaa9546509f277e72e8d4faccCFsTH3BT9iA0xSnO[] = {
/* columns rows colors chars-per-pixel */
"64 64 20 1 ",
"  c black",
". c yellow",
"X c #FFFF06",
"o c #FFFF1C",
"O c #FFFF21",
"+ c #FFFF24",
"@ c #FFFF2B",
"# c #FFFF35",
"$ c #FFFF71",
"% c cyan",
"& c #FFFF83",
"* c #FFFF91",
"= c #FFFF95",
"- c #FFFF99",
"; c #FFFFCA",
": c #FFFFDB",
"> c #FFFFE4",
", c ivory",
"< c #FFFFF6",
"1 c None",
/* pixels */
"1111111111111111111111111111111111111111111111111111111111111111",
"1111111111111111111111111111111111111111111111111111111111111111",
"1111111111111111111111111111111111111111111111111111111111111111",
"1111111111111111111111111111111111111111111111111111111111111111",
"1111111111111111111111111111111111111111111111111111111111111111",
"1111111111111111111111111111111111111111111111111111111111111111",
"1111111111111111111111111111111111111111111111111111111111111111",
"1111111111111111111111111111111111111111111111111111111111111111",
"1111111111111111111111111111....11111111111111111111111111111111",
"111111111111111111111...............1111111111111111111111111111",
"111111111111111111.............................11111111111111111",
"111111111111111..................................111111111111111",
"111111111111......................  ..............11111111111111",
"11111111111....................... ................1111111111111",
"11111111111...................... =>=@..............111111111111",
"1111111111......................O *+*<O..............11111111111",
"1111111111.......    ........... &...&-..............11111111111",
"111111111........X$:   ......... O...O>...............1111111111",
"111111111........&;#;&  ........ .. ..1................111111111",
"11111111.........:o.o:. .......  O...O>................111111111",
"11111111.........,. .,.  ...... -&...&=................111111111",
"11111111.........:o.o:.. .......O<*+*<O................111111111",
"1111111..........&;#;&...........@=>=@.................111111111",
"1111111..........X$:$X.................................111111111",
"1111111................................................111111111",
"1111111................................................111111111",
"1111111................................................111111111",
"11111111........%%..................%%.................111111111",
"11111111.......%%%%.................%%%%...............111111111",
"11111111......%%%%%................%%%%%%..............111111111",
"11111111......%%%%%................%%%%%%..............111111111",
"11111111.....%%%%%%%               %%%%%%%............1111111111",
"111111111....%%%%%%%111111111111111%%%%%%%............1111111111",
"111111111....%%%%%%%111111111111111%%%%%%%%...........1111111111",
"111111111....%%%%%%%111111111111   %%%%%%%%...........1111111111",
"1111111111...%%%%%%%               % %%%%%%...........1111111111",
"1111111111...%%%%%%%                %%%%%%%...........1111111111",
"11111111111..%%%%%%                 %%%%%%%...........1111111111",
"11111111111...%%%%....             ..%%%%%............1111111111",
"111111111111..............       ......%%............11111111111",
"1111111111111.......................................111111111111",
"11111111111111......................................111111111111",
"11111111111111.....................................1111111111111",
"111111111111111...................................11111111111111",
"111111111111111111...............................111111111111111",
"11111111111111111111.............................111111111111111",
"111111111111111111111111........................1111111111111111",
"1111111111111111111111111111...................11111111111111111",
"1111111111111111111111111111111111...........1111111111111111111",
"1111111111111111111111111111111111111111.11111111111111111111111",
"1111111111111111111111111111111111111111111111111111111111111111",
"1111111111111111111111111111111111111111111111111111111111111111",
"1111111111111111111111111111111111111111111111111111111111111111",
"1111111111111111111111111111111111111111111111111111111111111111",
"1111111111111111111111111111111111111111111111111111111111111111",
"1111111111111111111111111111111111111111111111111111111111111111",
"1111111111111111111111111111111111111111111111111111111111111111",
"1111111111111111111111111111111111111111111111111111111111111111",
"1111111111111111111111111111111111111111111111111111111111111111",
"1111111111111111111111111111111111111111111111111111111111111111",
"1111111111111111111111111111111111111111111111111111111111111111",
"1111111111111111111111111111111111111111111111111111111111111111",
"1111111111111111111111111111111111111111111111111111111111111111",
"1111111111111111111111111111111111111111111111111111111111111111"
};
